<svg xmlns="http://www.w3.org/2000/svg" width="720" height="760" viewBox="0 0 720 760" role="img" aria-labelledby="title desc" data-selection-count="10">
<title id="title">10 voies</title>
<desc id="desc">10 ports de sélection numérotés de 1 à 10 dans le sens horaire et un port commun central COM. Seuls COM et le port 2 sont reliés. Le port commun est exclu du nombre de voies. Ce schéma ne précise ni les dimensions, ni les emplacements des ports, ni la numérotation réelle du produit.</desc>
<rect width="720" height="760" fill="white"/>
<g font-family="Arial, 'Microsoft YaHei', sans-serif" text-anchor="middle">
<text x="360" y="42" font-size="34" font-weight="700" fill="#171b20">10 voies</text>
<rect x="95" y="83" width="530" height="530" rx="18" fill="#3d4249" stroke="#25292e" stroke-width="5"/>
<rect x="109" y="97" width="502" height="502" rx="12" fill="none" stroke="#646a72" stroke-width="3"/>
<circle cx="127" cy="115" r="10" fill="#22262b" stroke="#868d95" stroke-width="2"/>
<circle cx="127" cy="581" r="10" fill="#22262b" stroke="#868d95" stroke-width="2"/>
<circle cx="593" cy="115" r="10" fill="#22262b" stroke="#868d95" stroke-width="2"/>
<circle cx="593" cy="581" r="10" fill="#22262b" stroke="#868d95" stroke-width="2"/>
<circle cx="360" cy="348" r="222" fill="#f2f3f4" stroke="#c4c8cc" stroke-width="5"/>
<circle cx="360" cy="348" r="138" fill="#d8dce0" stroke="#c3c8ce" stroke-width="2"/>
<path data-active-path="COM-2" d="M 360 348 L 466.98 200.76" fill="none" stroke="#eaf5ff" stroke-width="20" stroke-linecap="round"/>
<path d="M 360 348 L 466.98 200.76" fill="none" stroke="#1688dd" stroke-width="13" stroke-linecap="round"/>
<g data-port="1" data-connected="false">
<line x1="360.00" y1="166.00" x2="360.00" y2="116.00" stroke="#adb6bf" stroke-width="16" stroke-linecap="round"/>
<line x1="360.00" y1="166.00" x2="360.00" y2="116.00" stroke="#fff" stroke-width="12" stroke-linecap="round"/>
<circle data-selection-port="1" cx="360.00" cy="166.00" r="15" fill="#fff" stroke="#eaa50d" stroke-width="6"/>
<rect x="338.00" y="66.00" width="44" height="36" rx="8" fill="#fff"/>
<text data-port-label="1" x="360.00" y="84.00" dominant-baseline="central" font-size="30" font-weight="700" fill="#262b30">1</text>
</g>
<g data-port="2" data-connected="true">
<line x1="466.98" y1="200.76" x2="496.37" y2="160.31" stroke="#adb6bf" stroke-width="16" stroke-linecap="round"/>
<line x1="466.98" y1="200.76" x2="496.37" y2="160.31" stroke="#1688dd" stroke-width="12" stroke-linecap="round"/>
<circle data-selection-port="2" cx="466.98" cy="200.76" r="15" fill="#1688dd" stroke="#eaa50d" stroke-width="6"/>
<rect x="493.18" y="116.42" width="44" height="36" rx="8" fill="#e8f4ff"/>
<text data-port-label="2" x="515.18" y="134.42" dominant-baseline="central" font-size="30" font-weight="700" fill="#0876bf">2</text>
</g>
<g data-port="3" data-connected="false">
<line x1="533.09" y1="291.76" x2="580.65" y2="276.31" stroke="#adb6bf" stroke-width="16" stroke-linecap="round"/>
<line x1="533.09" y1="291.76" x2="580.65" y2="276.31" stroke="#fff" stroke-width="12" stroke-linecap="round"/>
<circle data-selection-port="3" cx="533.09" cy="291.76" r="15" fill="#fff" stroke="#eaa50d" stroke-width="6"/>
<rect x="589.08" y="248.42" width="44" height="36" rx="8" fill="#fff"/>
<text data-port-label="3" x="611.08" y="266.42" dominant-baseline="central" font-size="30" font-weight="700" fill="#262b30">3</text>
</g>
<g data-port="4" data-connected="false">
<line x1="533.09" y1="404.24" x2="580.65" y2="419.69" stroke="#adb6bf" stroke-width="16" stroke-linecap="round"/>
<line x1="533.09" y1="404.24" x2="580.65" y2="419.69" stroke="#fff" stroke-width="12" stroke-linecap="round"/>
<circle data-selection-port="4" cx="533.09" cy="404.24" r="15" fill="#fff" stroke="#eaa50d" stroke-width="6"/>
<rect x="589.08" y="411.58" width="44" height="36" rx="8" fill="#fff"/>
<text data-port-label="4" x="611.08" y="429.58" dominant-baseline="central" font-size="30" font-weight="700" fill="#262b30">4</text>
</g>
<g data-port="5" data-connected="false">
<line x1="466.98" y1="495.24" x2="496.37" y2="535.69" stroke="#adb6bf" stroke-width="16" stroke-linecap="round"/>
<line x1="466.98" y1="495.24" x2="496.37" y2="535.69" stroke="#fff" stroke-width="12" stroke-linecap="round"/>
<circle data-selection-port="5" cx="466.98" cy="495.24" r="15" fill="#fff" stroke="#eaa50d" stroke-width="6"/>
<rect x="493.18" y="543.58" width="44" height="36" rx="8" fill="#fff"/>
<text data-port-label="5" x="515.18" y="561.58" dominant-baseline="central" font-size="30" font-weight="700" fill="#262b30">5</text>
</g>
<g data-port="6" data-connected="false">
<line x1="360.00" y1="530.00" x2="360.00" y2="580.00" stroke="#adb6bf" stroke-width="16" stroke-linecap="round"/>
<line x1="360.00" y1="530.00" x2="360.00" y2="580.00" stroke="#fff" stroke-width="12" stroke-linecap="round"/>
<circle data-selection-port="6" cx="360.00" cy="530.00" r="15" fill="#fff" stroke="#eaa50d" stroke-width="6"/>
<rect x="338.00" y="594.00" width="44" height="36" rx="8" fill="#fff"/>
<text data-port-label="6" x="360.00" y="612.00" dominant-baseline="central" font-size="30" font-weight="700" fill="#262b30">6</text>
</g>
<g data-port="7" data-connected="false">
<line x1="253.02" y1="495.24" x2="223.63" y2="535.69" stroke="#adb6bf" stroke-width="16" stroke-linecap="round"/>
<line x1="253.02" y1="495.24" x2="223.63" y2="535.69" stroke="#fff" stroke-width="12" stroke-linecap="round"/>
<circle data-selection-port="7" cx="253.02" cy="495.24" r="15" fill="#fff" stroke="#eaa50d" stroke-width="6"/>
<rect x="182.82" y="543.58" width="44" height="36" rx="8" fill="#fff"/>
<text data-port-label="7" x="204.82" y="561.58" dominant-baseline="central" font-size="30" font-weight="700" fill="#262b30">7</text>
</g>
<g data-port="8" data-connected="false">
<line x1="186.91" y1="404.24" x2="139.35" y2="419.69" stroke="#adb6bf" stroke-width="16" stroke-linecap="round"/>
<line x1="186.91" y1="404.24" x2="139.35" y2="419.69" stroke="#fff" stroke-width="12" stroke-linecap="round"/>
<circle data-selection-port="8" cx="186.91" cy="404.24" r="15" fill="#fff" stroke="#eaa50d" stroke-width="6"/>
<rect x="86.92" y="411.58" width="44" height="36" rx="8" fill="#fff"/>
<text data-port-label="8" x="108.92" y="429.58" dominant-baseline="central" font-size="30" font-weight="700" fill="#262b30">8</text>
</g>
<g data-port="9" data-connected="false">
<line x1="186.91" y1="291.76" x2="139.35" y2="276.31" stroke="#adb6bf" stroke-width="16" stroke-linecap="round"/>
<line x1="186.91" y1="291.76" x2="139.35" y2="276.31" stroke="#fff" stroke-width="12" stroke-linecap="round"/>
<circle data-selection-port="9" cx="186.91" cy="291.76" r="15" fill="#fff" stroke="#eaa50d" stroke-width="6"/>
<rect x="86.92" y="248.42" width="44" height="36" rx="8" fill="#fff"/>
<text data-port-label="9" x="108.92" y="266.42" dominant-baseline="central" font-size="30" font-weight="700" fill="#262b30">9</text>
</g>
<g data-port="10" data-connected="false">
<line x1="253.02" y1="200.76" x2="223.63" y2="160.31" stroke="#adb6bf" stroke-width="16" stroke-linecap="round"/>
<line x1="253.02" y1="200.76" x2="223.63" y2="160.31" stroke="#fff" stroke-width="12" stroke-linecap="round"/>
<circle data-selection-port="10" cx="253.02" cy="200.76" r="15" fill="#fff" stroke="#eaa50d" stroke-width="6"/>
<rect x="182.82" y="116.42" width="44" height="36" rx="8" fill="#fff"/>
<text data-port-label="10" x="204.82" y="134.42" dominant-baseline="central" font-size="30" font-weight="700" fill="#262b30">10</text>
</g>
<circle id="common-port" cx="360" cy="348" r="26" fill="#1688dd" stroke="#eaa50d" stroke-width="7"/>
<text x="360" y="416" font-size="34" font-weight="700" fill="#262b30">COM</text>
<text x="360" y="446" font-size="23" fill="#4a525b">Port commun</text>
<text x="360" y="677" font-size="31" font-weight="700" fill="#171b20">Port commun COM ↔ port 2</text>
<text x="360" y="718" font-size="26" fill="#515a64">10 ports de sélection + 1 commun</text>
<text x="360" y="751" font-size="21" fill="#68727c">Schéma de connexion · sans échelle</text>
</g></svg>